<svg width="52" height="48" viewBox="0 0 52 48" fill="none" xmlns="http://www.w3.org/2000/svg">
<path d="M52.0001 19.3683C52.0004 19.1957 51.9476 19.0272 51.8492 18.8858C51.7507 18.7443 51.6112 18.6368 51.4497 18.5777L41.0171 14.7367L51.4497 10.8956C51.6109 10.8362 51.7501 10.7285 51.8484 10.5871C51.9467 10.4457 51.9994 10.2775 51.9994 10.1051C51.9994 9.93263 51.9467 9.76437 51.8484 9.62299C51.7501 9.48161 51.6109 9.37394 51.4497 9.31452L26.2881 0.0513172C26.1019 -0.0171057 25.8976 -0.0171057 25.7115 0.0513172L0.549821 9.31452C0.38861 9.37394 0.24945 9.48161 0.151143 9.62299C0.0528366 9.76437 0.00012207 9.93263 0.00012207 10.1051C0.00012207 10.2775 0.0528366 10.4457 0.151143 10.5871C0.24945 10.7285 0.38861 10.8362 0.549821 10.8956L10.9825 14.7367L0.549821 18.5777C0.38861 18.6372 0.24945 18.7448 0.151143 18.8862C0.0528366 19.0276 0.00012207 19.1958 0.00012207 19.3683C0.00012207 19.5407 0.0528366 19.709 0.151143 19.8503C0.24945 19.9917 0.38861 20.0994 0.549821 20.1588L10.9825 23.9999L0.549821 27.8409C0.38861 27.9004 0.24945 28.008 0.151143 28.1494C0.0528366 28.2908 0.00012207 28.459 0.00012207 28.6315C0.00012207 28.8039 0.0528366 28.9722 0.151143 29.1135C0.24945 29.2549 0.38861 29.3626 0.549821 29.422L10.9825 33.2631L0.549821 37.1041C0.38861 37.1636 0.24945 37.2712 0.151143 37.4126C0.0528366 37.554 0.00012207 37.7223 0.00012207 37.8947C0.00012207 38.0671 0.0528366 38.2354 0.151143 38.3767C0.24945 38.5181 0.38861 38.6258 0.549821 38.6852L25.7115 47.9484C25.8976 48.0172 26.102 48.0172 26.2881 47.9484L51.4497 38.6852C51.6109 38.6258 51.7501 38.5181 51.8484 38.3767C51.9467 38.2354 51.9994 38.0671 51.9994 37.8947C51.9994 37.7223 51.9467 37.554 51.8484 37.4126C51.7501 37.2712 51.6109 37.1636 51.4497 37.1041L41.0171 33.2631L51.4497 29.422C51.6109 29.3626 51.7501 29.2549 51.8484 29.1135C51.9467 28.9722 51.9994 28.8039 51.9994 28.6315C51.9994 28.459 51.9467 28.2908 51.8484 28.1494C51.7501 28.008 51.6109 27.9004 51.4497 27.8409L41.0171 23.9999L51.4497 20.1588C51.6112 20.0997 51.7507 19.9922 51.8492 19.8507C51.9476 19.7093 52.0004 19.5408 52.0001 19.3683ZM3.27462 10.1051L25.9998 1.73869L48.7249 10.1051L25.9998 18.4714L13.6968 13.9419L3.27462 10.1051ZM48.7249 37.8947L25.9998 46.261L3.27462 37.8947L13.4189 34.1599L25.7115 38.6852C25.8976 38.754 26.102 38.754 26.2881 38.6852L38.5806 34.1599L48.7249 37.8947ZM48.7249 28.6315L25.9998 36.9978L3.27462 28.6315L13.4189 24.8967L25.7115 29.422C25.8976 29.4908 26.102 29.4908 26.2881 29.422L38.5806 24.8967L48.7249 28.6315ZM25.9998 27.7346L3.27462 19.3683L13.4189 15.6335L25.7115 20.1588C25.8976 20.2276 26.102 20.2276 26.2881 20.1588L38.5806 15.6335L48.7249 19.3683L25.9998 27.7346Z" fill="#EB5757"/>
</svg>
