<svg width="64" height="64" viewBox="0 0 64 64" fill="none" xmlns="http://www.w3.org/2000/svg">
<path d="M19.4595 42.6897H2.5946C2.36522 42.6897 2.14524 42.5986 1.98305 42.4364C1.82086 42.2742 1.72974 42.0542 1.72974 41.8248V37.933C1.73225 35.6629 2.63515 33.4865 4.24032 31.8814C5.84549 30.2762 8.02184 29.3733 10.2919 29.3708H18.4043C20.4401 29.3629 22.4114 30.0846 23.961 31.4049C25.5106 32.7252 26.536 34.557 26.8515 36.5682C26.8877 36.7947 26.8325 37.0263 26.6979 37.2121C26.5634 37.3979 26.3606 37.5227 26.1341 37.5589C25.9076 37.5951 25.6759 37.5399 25.4901 37.4054C25.3043 37.2708 25.1796 37.068 25.1434 36.8415C24.8916 35.2371 24.0735 33.776 22.8372 32.7228C21.6009 31.6696 20.0283 31.0941 18.4043 31.1005H10.2919C8.48046 31.1026 6.7438 31.8231 5.46291 33.104C4.18203 34.3849 3.46153 36.1215 3.45947 37.933V40.96H19.4595C19.6888 40.96 19.9088 41.0511 20.071 41.2133C20.2332 41.3755 20.3243 41.5955 20.3243 41.8248C20.3243 42.0542 20.2332 42.2742 20.071 42.4364C19.9088 42.5986 19.6888 42.6897 19.4595 42.6897Z" fill="#EB5757"/>
<path d="M14.3454 26.8809C13.0204 26.8811 11.725 26.4883 10.6232 25.7523C9.52144 25.0163 8.66265 23.9701 8.15546 22.746C7.64828 21.5218 7.51549 20.1748 7.77389 18.8752C8.03228 17.5757 8.67025 16.3819 9.60712 15.4449C10.544 14.5079 11.7377 13.8698 13.0372 13.6112C14.3368 13.3527 15.6838 13.4853 16.908 13.9923C18.1322 14.4993 19.1785 15.358 19.9147 16.4597C20.6508 17.5614 21.0438 18.8566 21.0438 20.1817C21.0419 21.9577 20.3356 23.6605 19.0799 24.9164C17.8241 26.1723 16.1214 26.8788 14.3454 26.8809ZM14.3454 15.213C13.3624 15.2128 12.4015 15.5042 11.5841 16.0502C10.7668 16.5962 10.1297 17.3723 9.75344 18.2804C9.37721 19.1885 9.27872 20.1877 9.47044 21.1518C9.66216 22.1159 10.1355 23.0015 10.8305 23.6965C11.5256 24.3916 12.4111 24.8649 13.3752 25.0566C14.3393 25.2483 15.3386 25.1498 16.2467 24.7736C17.1548 24.3974 17.9309 23.7603 18.4769 22.9429C19.0229 22.1255 19.3142 21.1646 19.314 20.1817C19.3124 18.8644 18.7884 17.6015 17.857 16.6701C16.9255 15.7386 15.6627 15.2146 14.3454 15.213Z" fill="#EB5757"/>
<path d="M61.4054 42.6897H44.5406C44.3112 42.6897 44.0912 42.5986 43.929 42.4364C43.7668 42.2742 43.6757 42.0542 43.6757 41.8249C43.6757 41.5955 43.7668 41.3755 43.929 41.2133C44.0912 41.0511 44.3112 40.96 44.5406 40.96H60.5406V37.933C60.5385 36.1215 59.818 34.3849 58.5371 33.104C57.2562 31.8231 55.5196 31.1026 53.7081 31.1005H45.5957C43.9714 31.0942 42.3986 31.6699 41.1623 32.7234C39.926 33.777 39.1081 35.2385 38.8567 36.8432C38.8204 37.0697 38.6957 37.2726 38.5099 37.4071C38.3241 37.5417 38.0925 37.5969 37.866 37.5606C37.6395 37.5244 37.4366 37.3997 37.3021 37.2139C37.1675 37.0281 37.1123 36.7964 37.1486 36.5699C37.4636 34.5584 38.4889 32.7263 40.0385 31.4056C41.5882 30.0849 43.5596 29.363 45.5957 29.3708H53.7081C55.9782 29.3733 58.1545 30.2762 59.7597 31.8814C61.3649 33.4865 62.2678 35.6629 62.2703 37.933V41.8249C62.2703 42.0542 62.1792 42.2742 62.017 42.4364C61.8548 42.5986 61.6348 42.6897 61.4054 42.6897Z" fill="#EB5757"/>
<path d="M49.6546 26.8809C48.3296 26.8809 47.0344 26.488 45.9327 25.7519C44.831 25.0158 43.9723 23.9695 43.4653 22.7454C42.9582 21.5212 42.8256 20.1742 43.084 18.8747C43.3425 17.5752 43.9806 16.3815 44.9175 15.4446C45.8544 14.5077 47.0481 13.8696 48.3476 13.6111C49.6471 13.3527 50.9941 13.4853 52.2183 13.9924C53.4424 14.4994 54.4887 15.3581 55.2248 16.4598C55.9609 17.5615 56.3538 18.8567 56.3538 20.1817C56.3517 21.9578 55.6453 23.6606 54.3894 24.9165C53.1335 26.1724 51.4307 26.8788 49.6546 26.8809ZM49.6546 15.213C48.6716 15.213 47.7108 15.5045 46.8936 16.0506C46.0763 16.5967 45.4394 17.3729 45.0633 18.281C44.6871 19.1891 44.5888 20.1883 44.7806 21.1524C44.9724 22.1164 45.4458 23.0018 46.1409 23.6968C46.836 24.3918 47.7215 24.865 48.6856 25.0567C49.6496 25.2483 50.6489 25.1498 51.5569 24.7735C52.465 24.3972 53.241 23.7602 53.787 22.9428C54.3329 22.1255 54.6242 21.1646 54.6241 20.1817C54.6227 18.8642 54.0987 17.601 53.167 16.6695C52.2353 15.738 50.9721 15.2142 49.6546 15.213Z" fill="#EB5757"/>
<path d="M45.2541 49.6518H18.746C18.5166 49.6518 18.2966 49.5607 18.1344 49.3985C17.9722 49.2363 17.8811 49.0163 17.8811 48.787V45.2652C17.8836 42.7343 18.8901 40.3077 20.6797 38.518C22.4692 36.7283 24.8957 35.7216 27.4266 35.7189H36.5734C39.1044 35.7216 41.5308 36.7283 43.3204 38.518C45.11 40.3077 46.1164 42.7343 46.119 45.2652V48.787C46.119 49.0163 46.0278 49.2363 45.8656 49.3985C45.7035 49.5607 45.4835 49.6518 45.2541 49.6518ZM19.6108 47.9221H44.3892V45.2652C44.3872 43.1929 43.5631 41.2061 42.0978 39.7406C40.6325 38.2752 38.6458 37.4509 36.5734 37.4486H27.4266C25.3544 37.4509 23.3678 38.2751 21.9026 39.7403C20.4373 41.2056 19.6131 43.1922 19.6108 45.2644V47.9221Z" fill="#EB5757"/>
<path d="M32.0001 32.6919C30.5274 32.6921 29.0878 32.2555 27.8633 31.4375C26.6387 30.6195 25.6843 29.4567 25.1206 28.0962C24.5569 26.7357 24.4094 25.2386 24.6966 23.7942C24.9837 22.3499 25.6928 21.0231 26.7341 19.9817C27.7753 18.9404 29.102 18.2312 30.5463 17.9438C31.9907 17.6564 33.4878 17.8038 34.8483 18.3673C36.2089 18.9309 37.3718 19.8852 38.1899 21.1096C39.0081 22.3341 39.4448 23.7736 39.4448 25.2463C39.443 27.2203 38.6581 29.1129 37.2623 30.5088C35.8666 31.9047 33.9741 32.6898 32.0001 32.6919ZM32.0001 19.5287C30.8695 19.5285 29.7643 19.8636 28.8242 20.4916C27.8841 21.1196 27.1513 22.0123 26.7186 23.0568C26.2859 24.1013 26.1726 25.2506 26.3931 26.3595C26.6136 27.4683 27.158 28.4869 27.9575 29.2863C28.7569 30.0857 29.7754 30.6301 30.8843 30.8507C31.9932 31.0712 33.1425 30.9579 34.187 30.5252C35.2315 30.0925 36.1241 29.3597 36.7522 28.4196C37.3802 27.4795 37.7153 26.3743 37.7151 25.2437C37.7135 23.7285 37.1109 22.2758 36.0394 21.2043C34.968 20.1329 33.5153 19.5303 32.0001 19.5287Z" fill="#EB5757"/>
</svg>
