<svg width="18" height="15" viewBox="0 0 18 15" fill="none" xmlns="http://www.w3.org/2000/svg">
<path d="M14.465 7.52625C16.4275 7.52625 17.75 8.89125 17.75 10.9138C17.75 12.7338 16.23 14.25 14.1712 14.25C11.9162 14.25 10.25 12.43 10.25 9.65C10.25 3.33125 14.8575 0.80375 17.75 0.5V3.28C15.7888 3.63375 13.5838 5.605 13.485 7.78C13.5838 7.73 13.975 7.52625 14.465 7.52625Z" fill="#EB5757"/>
<path d="M4.46625 7.52625C6.42625 7.52625 7.75 8.89125 7.75 10.9138C7.75 12.7338 6.23 14.25 4.17125 14.25C1.91625 14.25 0.25 12.43 0.25 9.65C0.25 3.33125 4.8575 0.80375 7.75 0.5V3.28C5.78875 3.63375 3.58375 5.605 3.485 7.78C3.58375 7.73 3.975 7.52625 4.46625 7.52625Z" fill="#EB5757"/>
</svg>
