<?xml version="1.0" encoding="UTF-8"?>
<svg width="45px" height="33px" viewBox="0 0 45 33" version="1.1" xmlns="http://www.w3.org/2000/svg" xmlns:xlink="http://www.w3.org/1999/xlink">
    <!-- Generator: Sketch 59.1 (86144) - https://sketch.com -->
    <title>Group 6</title>
    <desc>Created with Sketch.</desc>
    <g id="About" stroke-width="1" fill-rule="evenodd">
        <g id="About-v.1-Light" transform="translate(-1255.000000, -535.000000)" fill-rule="nonzero">
            <g id="Group-3" transform="translate(1228.000000, 504.000000)">
                <g id="Group-6" transform="translate(27.000000, 31.000000)">
                    <path d="M10,13.8502674 L9.66101695,14.2780749 C8.68643581,15.4260307 7.2598964,16 5.38135593,16 C3.71468093,16 2.4064313,15.4420733 1.4565678,14.3262032 C0.50670429,13.2103331 0.0211865466,11.6328088 0,9.59358289 L0,6.53475936 C0,4.35293027 0.432552172,2.71836551 1.29766949,1.63101604 C2.16278681,0.543666578 3.45691229,0 5.18008475,0 C6.64901864,0 7.79837156,0.413543102 8.62817797,1.24064171 C9.45798438,2.06774032 9.91525381,3.24776417 10,4.78074866 L8.06144068,4.78074866 C7.98375667,3.81104684 7.71716329,3.05347866 7.26165254,2.50802139 C6.80614179,1.96256412 6.11582383,1.68983957 5.19067797,1.68983957 C4.08191536,1.68983957 3.26977659,2.05525481 2.75423729,2.78609626 C2.23869799,3.5169377 1.97033909,4.68448396 1.94915254,6.28877005 L1.94915254,9.46524064 C1.94915254,11.0338759 2.24575975,12.2370725 2.83898305,13.0748663 C3.43220636,13.9126602 4.28318655,14.3315508 5.39194915,14.3315508 C6.43715212,14.3315508 7.2316357,14.0748689 7.77542373,13.5614973 L8.06144068,13.2941176 L8.06144068,9.70053476 L5.24364407,9.70053476 L5.24364407,8.03208556 L10,8.03208556 L10,13.8502674 Z M23,9.36898396 C23,11.4937718 22.5675903,13.130119 21.7027579,14.2780749 C20.8379255,15.4260307 19.6087924,16 18.0153218,16 C16.4831384,16 15.2727317,15.4420733 14.3840654,14.3262032 C13.495399,13.2103331 13.0340485,11.6328088 13,9.59358289 L13,6.6631016 C13,4.58109476 13.4392193,2.95009503 14.3176711,1.77005348 C15.1961229,0.590011925 16.4218512,0 17.9948927,0 C19.5611246,0 20.7817457,0.565056738 21.6567926,1.69518717 C22.5318396,2.82531759 22.9795709,4.43849219 23,6.53475936 L23,9.36898396 Z M21,6.68493151 C21,5.10273182 20.7540741,3.92637372 20.262215,3.15582192 C19.7703558,2.38527012 19.0162917,2 18,2 C17.0162817,2 16.2719895,2.39040705 15.767101,3.17123288 C15.2622125,3.9520587 15.0065147,5.10273212 15,6.62328767 L15,9.30479452 C15,10.8321994 15.2524405,11.9965713 15.757329,12.7979452 C16.2622175,13.5993191 17.0162816,14 18.019544,14 C19.0228063,14 19.7654699,13.6301407 20.247557,12.890411 C20.7296441,12.1506812 20.9804559,11.0171309 21,9.48972603 L21,6.68493151 Z M27.9496689,14.2747253 L34,14.2747253 L34,16 L26,16 L26,0 L27.9496689,0 L27.9496689,14.2747253 Z M39.5328054,0 C41.2635833,0 42.6074613,0.584243242 43.5644796,1.75274725 C44.521498,2.92125126 45,4.56409198 45,6.68131868 L45,9.36263736 C45,11.4798641 44.5147107,13.1153788 43.5441176,14.2692308 C42.5735246,15.4230827 41.1651676,16 39.3190045,16 L36,16 L36,0 L39.5328054,0 Z M39.5769231,2 L38,2 L38,14 L39.4134615,14 C40.6506472,14 41.5544843,13.6126244 42.125,12.8378615 C42.6955157,12.0630987 42.9871794,10.9149945 43,9.39351446 L43,9.39351446 L43,6.68010517 C43,5.0674766 42.716349,3.88431578 42.1490385,3.1305872 C41.5817279,2.37685863 40.7243647,2 39.5769231,2 L39.5769231,2 Z" id="GOLD"></path>
                    <path d="M1.1081954,29.4766484 L1.1081954,33 L0,33 L0,24 L2.80985063,24 C3.62939449,24 4.27331215,24.2503409 4.74162293,24.7510302 C5.20993371,25.2517195 5.44408559,25.9182651 5.44408559,26.7506868 C5.44408559,27.6160758 5.22103574,28.2826213 4.77492935,28.7503434 C4.32882296,29.2180655 3.70004443,29.4601648 2.88857489,29.4766484 L1.1081954,29.4766484 Z M1.1081954,28.5061813 L2.80985063,28.5061813 C3.30238438,28.5061813 3.67985335,28.3557707 3.94226887,28.0549451 C4.2046844,27.7541194 4.33589019,27.3234918 4.33589019,26.7630495 C4.33589019,26.2232116 4.2006473,25.7905236 3.93015745,25.4649725 C3.6596676,25.1394214 3.28825428,24.9766484 2.81590634,24.9766484 L1.1081954,24.9766484 L1.1081954,28.5061813 Z M10.1493742,30.6510989 L7.16996367,30.6510989 L6.48566815,33 L5.34719419,33 L8.18732338,24 L9.13807025,24 L11.9842551,33 L10.8457812,33 L10.1493742,30.6510989 Z M7.46063787,29.6744505 L9.86475575,29.6744505 L8.65966895,25.5824176 L7.46063787,29.6744505 Z M15.8477998,29.3592033 L14.2975373,29.3592033 L14.2975373,33 L13.1832862,33 L13.1832862,24 L15.654017,24 C16.5179696,24 17.17198,24.2297367 17.6160678,24.689217 C18.0601556,25.1486974 18.2821962,25.8214241 18.2821962,26.7074176 C18.2821962,27.263739 18.1620924,27.7489677 17.9218813,28.1631181 C17.6816702,28.5772686 17.3415444,28.889422 16.9014937,29.0995879 L18.6092047,32.9258242 L18.6092047,33 L17.4162293,33 L15.8477998,29.3592033 Z M14.2975373,28.3887363 L15.6419055,28.3887363 C16.1061791,28.3887363 16.4765832,28.2362653 16.7531288,27.9313187 C17.0296744,27.6263721 17.1679451,27.2184091 17.1679451,26.7074176 C17.1679451,25.5535657 16.6552332,24.9766484 15.6297941,24.9766484 L14.2975373,24.9766484 L14.2975373,28.3887363 Z M24.4348002,24.9766484 L22.1154623,24.9766484 L22.1154623,33 L21.0072669,33 L21.0072669,24.9766484 L18.6939847,24.9766484 L18.6939847,24 L24.4348002,24 L24.4348002,24.9766484 Z M31.495761,33 L30.3815099,33 L26.8510295,26.0645604 L26.8510295,33 L25.7367784,33 L25.7367784,24 L26.8510295,24 L30.3936213,30.9663462 L30.3936213,24 L31.495761,24 L31.495761,33 Z M37.6423092,28.8399725 L34.5236173,28.8399725 L34.5236173,32.029533 L38.1570448,32.029533 L38.1570448,33 L33.4154219,33 L33.4154219,24 L38.0964877,24 L38.0964877,24.9766484 L34.5236173,24.9766484 L34.5236173,27.8695055 L37.6423092,27.8695055 L37.6423092,28.8399725 Z M42.0448123,24 C42.9087649,24 43.5627753,24.2297367 44.0068631,24.689217 C44.4509509,25.1486974 44.6729915,25.8214241 44.6729915,26.7074176 C44.6729915,27.263739 44.5528878,27.7489677 44.3126766,28.1631181 C44.0724655,28.5772686 43.7323397,28.889422 43.2922891,29.0995879 L45,32.9258242 L45,33 L43.8070246,33 L42.2385951,29.3592033 L40.6883327,29.3592033 L40.6883327,33 L39.5740816,33 L39.5740816,24 L42.0448123,24 Z M42.0205894,24.9766484 L40.6883327,24.9766484 L40.6883327,28.3887363 L42.0327008,28.3887363 C42.4969745,28.3887363 42.8673785,28.2362653 43.1439241,27.9313187 C43.4204697,27.6263721 43.5587404,27.2184091 43.5587404,26.7074176 C43.5587404,25.5535657 43.0460285,24.9766484 42.0205894,24.9766484 L42.0205894,24.9766484 Z" id="PARTNER"></path>
                </g>
            </g>
        </g>
    </g>
</svg>