<svg width="88" height="80" viewBox="0 0 88 80" fill="none" xmlns="http://www.w3.org/2000/svg">
<path fill-rule="evenodd" clip-rule="evenodd" d="M60.9144 5.16281C60.2104 6.43723 57.3759 6.7442 55.4491 6.27909C56.787 5.15765 58.5516 4.69077 60.266 5.00467L60.9051 5.16281L60.3401 4.81862C58.9247 3.82236 58.0275 2.24228 57.8946 0.511647C59.5805 1.5349 61.359 3.76746 60.9422 5.16281H60.9144ZM58.4875 4.03723L57.9872 3.60932C56.6005 2.54673 54.8152 2.15816 53.1148 2.54886C54.6062 3.84188 57.274 4.85583 58.4782 4.04653L58.4875 4.03723ZM29.7717 4.03723C30.9851 4.84653 33.6437 3.83258 35.135 2.53955C33.4333 2.15147 31.6478 2.54348 30.2626 3.60932L29.7624 4.03723H29.7717ZM25.4087 78.7163C24.538 79.8884 21.7035 79.8233 19.8508 79.107C21.3247 78.17 23.1367 77.9383 24.7974 78.4744L25.4087 78.7163C26.0016 77.3861 24.538 74.9954 23.0003 73.7116C22.9 75.445 23.5801 77.1319 24.8529 78.307L25.3624 78.7163H25.4087ZM21.7683 76.6047C22.4908 75.3396 21.2866 72.7721 19.9157 71.3861C19.649 73.107 20.1697 74.857 21.3329 76.1488L21.8054 76.614L21.2218 76.3163C19.6237 75.6144 17.7977 75.6621 16.2382 76.4465C17.9982 77.3768 20.8698 77.693 21.7961 76.614L21.7683 76.6047ZM18.4243 74.1396C17.3405 75.0698 14.5616 74.4837 12.8664 73.414C14.4974 72.7909 16.3197 72.9272 17.8407 73.7861L18.3965 74.1396L17.9797 73.6279C16.9563 72.2259 16.6161 70.4355 17.0534 68.7535C18.3131 70.2791 19.258 72.9582 18.4058 74.1396H18.4243ZM15.3489 71.3489C14.1725 72.214 11.4677 71.3489 9.92999 70.0651C11.6132 69.6072 13.412 69.9242 14.8395 70.9303L15.3582 71.3396C16.2845 70.2512 15.6546 67.4884 14.5616 65.8419C13.9568 67.4731 14.1168 69.2912 14.9969 70.7907L15.3675 71.3396L15.3489 71.3489ZM12.57 68.2698C11.3102 69.0047 8.71651 67.8326 7.30851 66.4093C9.02942 66.124 10.7876 66.6217 12.1068 67.7675L12.5792 68.2326C13.6538 67.2465 13.2647 64.4279 12.3384 62.6512C11.5727 64.2126 11.5489 66.0376 12.2736 67.6186L12.5792 68.2047L12.57 68.2698ZM10.1152 64.9303C8.79988 65.5814 6.37293 64.1209 5.09462 62.6047C6.83728 62.5015 8.53509 63.1835 9.7262 64.4651L10.143 64.9675L9.89293 64.3628C9.33407 62.7134 9.54503 60.899 10.4672 59.4233C11.2176 61.2837 11.3102 64.0744 10.143 65.0047L10.1152 64.9303ZM8.05883 61.3675L7.87356 60.7349C7.48269 59.0378 7.87399 57.2541 8.93883 55.8791C9.49462 57.7396 9.30935 60.6047 8.01251 61.3675L7.64199 60.8186C6.58492 59.4394 4.97365 58.6014 3.24199 58.5303C4.3443 60.1675 6.65083 61.8326 8.03104 61.3209L8.05883 61.3675ZM6.32662 57.6465C4.90935 57.9814 2.77883 56.0837 1.84325 54.3442C3.56305 54.5694 5.09398 55.5512 6.02093 57.0233L6.33588 57.6C7.65125 56.9768 8.13293 54.1768 7.76241 52.2326C6.56557 53.4941 5.99748 55.2295 6.21546 56.9582L6.33588 57.6L6.32662 57.6465ZM4.98346 53.7302L4.92788 53.0698C4.87487 51.3129 5.61743 49.6265 6.94725 48.4837C7.11399 50.4465 6.35441 53.1907 4.98346 53.6837L4.73335 53.0698C3.97285 51.499 2.55239 50.3524 0.861354 49.9442C1.61167 51.8047 3.53841 53.8605 4.98346 53.6651V53.7302ZM4.05714 49.693V49.0326C4.1952 47.2941 5.10308 45.7097 6.53041 44.7163C6.53041 46.6884 5.46514 49.3675 4.04788 49.693L3.86262 49.0605C3.2638 47.4215 1.96541 46.1381 0.324091 45.5628C0.889144 47.4233 2.59356 49.7303 4.02935 49.693H4.05714ZM3.52914 45.5814C2.07483 45.4791 0.611249 43.0419 0.240723 41.0977C1.81496 41.8343 2.97752 43.2408 3.40872 44.9303L3.52914 45.5721C4.9742 45.3675 6.30809 42.8279 6.50262 40.8744C4.98457 41.7207 3.92404 43.2056 3.61251 44.921L3.53841 45.5721L3.52914 45.5814ZM3.42725 41.3954C1.99146 41.1442 0.777986 38.6047 0.648302 36.6047C2.14607 37.4916 3.16669 39.0085 3.42725 40.7349L3.48283 41.3861C4.93714 41.3209 6.48409 38.9303 6.9102 37.0047C5.31664 37.6909 4.11095 39.0551 3.62178 40.7256L3.42725 41.3954ZM3.7422 37.2651C2.31567 36.8744 1.38935 34.1954 1.38935 32.2233C2.78205 33.2616 3.63584 34.8739 3.71441 36.614V37.2744C5.16872 37.3582 6.94725 35.1349 7.56788 33.2651C5.90904 33.7902 4.57052 35.032 3.9182 36.6512L3.71441 37.2744L3.7422 37.2651ZM4.47399 33.1907L4.74262 32.5861C5.55361 31.0424 7.0066 29.9412 8.70725 29.5814C7.90135 31.3861 5.9283 33.4233 4.46472 33.1907L4.53883 32.5396C4.64198 30.803 3.96163 29.1121 2.6862 27.9349C2.45462 29.8977 3.13083 32.6512 4.48325 33.1907H4.47399ZM5.61335 29.2093C4.31651 28.5396 3.92746 25.7303 4.35356 23.7954C5.50897 25.0911 6.02261 26.8401 5.7523 28.5582L5.61335 29.2C7.02135 29.5721 9.20746 27.7489 10.1986 26.0372C8.46714 26.2231 6.90836 27.1746 5.94683 28.6326L5.61335 29.2V29.2093ZM7.15104 25.3582C5.9283 24.5675 5.82641 21.7303 6.44704 19.8512C7.47324 21.2556 7.8136 23.05 7.37335 24.7349L7.16956 25.3582C8.53125 25.8698 10.8748 24.2791 12.0512 22.6698C10.3103 22.6808 8.66423 23.4681 7.55862 24.8186L7.16956 25.3582H7.15104ZM9.06851 21.6372C10.3746 22.2884 12.8849 20.9303 14.191 19.4512C12.4557 19.2879 10.7381 19.9084 9.50388 21.1442L9.06851 21.6372L9.33714 21.0326C9.94746 19.4041 9.79433 17.5861 8.9203 16.0837C8.11441 17.8884 7.92914 20.7349 9.06851 21.6651V21.6372ZM11.3472 18.1675C10.3098 17.1442 10.7822 14.3442 11.7641 12.5861C12.4801 14.1713 12.446 15.9963 11.6715 17.5535L11.3472 18.1303L11.8289 17.6837C13.1821 16.5799 14.9537 16.1368 16.6643 16.4744C15.21 17.814 12.5792 18.9116 11.3472 18.1303V18.1675ZM13.9595 14.9489L14.4875 14.5489C15.9459 13.5864 17.7546 13.324 19.4247 13.8326C17.8407 15.0233 15.1174 15.8419 13.9687 14.9489L14.3578 14.4186C15.2846 12.9487 15.5024 11.1376 14.9506 9.48839C13.802 11.0977 13.0424 13.8326 13.978 14.9582L13.9595 14.9489ZM16.8866 12.0093C16.0715 10.8 17.0997 8.14886 18.4058 6.66979C18.7885 8.36676 18.3905 10.1466 17.322 11.5163L16.8866 12.0093C17.9426 13.014 20.7401 12.4651 22.4445 11.4419C20.8326 10.7702 19.0069 10.852 17.4609 11.6651L16.8959 12.0093H16.8866ZM20.1009 9.37676C19.4155 8.09304 20.703 5.56281 22.1574 4.21397C22.3651 5.94386 21.7868 7.67583 20.5826 8.93025L20.1009 9.37676L20.6938 9.09769C22.311 8.44484 24.1334 8.54708 25.6681 9.37676C23.8803 10.2233 21.0365 10.493 20.1102 9.37676H20.1009ZM23.5561 7.07909L24.1767 6.85583C25.8492 6.36806 27.651 6.65089 29.0955 7.62793C27.2428 8.28839 24.3805 8.26979 23.5376 7.06979L24.0656 6.66979C25.387 5.54299 26.135 3.88011 26.1035 2.13955C24.5287 3.33025 22.9818 5.73025 23.5376 7.06979L23.5561 7.07909ZM27.2614 5.1442C26.8445 3.74886 28.623 1.5256 30.3089 0.493042C30.1638 2.23141 29.2491 3.81247 27.8171 4.80002L27.2521 5.1442L27.8912 4.98607C29.6043 4.66829 31.3693 5.13187 32.7081 6.25118C30.7814 6.7256 27.9468 6.41862 27.2521 5.1442H27.2614ZM62.6929 78.7163C63.5544 79.8884 66.3982 79.8233 68.2508 79.0977C66.7755 78.1638 64.9636 77.9355 63.3043 78.4744L62.6929 78.7163C62.1001 77.3861 63.5637 74.9954 65.1014 73.7116C65.199 75.4445 64.5194 77.1304 63.2487 78.307L62.7393 78.7163H62.6929ZM66.2315 76.5861C65.5089 75.321 66.7132 72.7535 68.0841 71.3582C68.347 73.0805 67.8229 74.83 66.6576 76.121L66.1852 76.5861L66.7687 76.2884C68.3654 75.5836 70.1914 75.6279 71.7523 76.4093C69.9923 77.3396 67.1207 77.6651 66.1944 76.5861H66.2315ZM69.5755 74.1209C70.6593 75.0512 73.4382 74.4651 75.1334 73.3861C73.5024 72.763 71.6801 72.8993 70.159 73.7582L69.6032 74.1209L70.0201 73.6093C71.0435 72.2072 71.3837 70.4169 70.9464 68.7349C69.6866 70.2605 68.7418 72.9396 69.594 74.1209H69.5755ZM72.6508 71.3303L73.0214 70.7814C73.9015 69.2819 74.0614 67.4638 73.4567 65.8326C72.3544 67.4791 71.6875 70.2326 72.6508 71.3303L73.1696 70.921C74.596 69.9129 76.3944 69.5926 78.079 70.0465C76.5321 71.2837 73.8365 72.1954 72.6601 71.3303H72.6508ZM75.4298 68.2512C76.6896 68.9861 79.2832 67.814 80.7005 66.3907C78.9796 66.1054 77.2215 66.6031 75.9022 67.7489L75.4298 68.214C74.3645 67.2279 74.7443 64.4093 75.6706 62.6326C76.4363 64.194 76.4601 66.0189 75.7355 67.6L75.4298 68.1861V68.2512ZM77.8845 64.9023C79.2091 65.507 81.6731 64.0837 82.9422 62.5582C81.1995 62.455 79.5017 63.137 78.3106 64.4186L77.8845 64.921L78.1346 64.3163C78.6976 62.6685 78.49 60.8535 77.5696 59.3768C76.8193 61.2372 76.7266 64.0279 77.8845 64.9582V64.9023ZM79.9872 61.3302C81.3675 61.8047 83.6925 60.1302 84.7856 58.5396C83.0444 58.6038 81.4218 59.4424 80.3578 60.8279L79.9872 61.3768C78.7367 60.6233 78.5515 57.7861 79.1165 55.8884C80.1826 57.2629 80.574 59.0471 80.1818 60.7442L79.9965 61.3768L79.9872 61.3302ZM81.7195 57.6093C83.1367 57.9442 85.2672 56.0465 86.2028 54.307C84.4785 54.5469 82.9504 55.546 82.0344 57.0326L81.7195 57.6093C80.4041 56.9861 79.9317 54.1861 80.2929 52.2419C81.4883 53.5006 82.0563 55.2325 81.8399 56.9582L81.7195 57.6V57.6093ZM83.0626 53.693C84.5077 53.8791 86.4344 51.7861 87.1847 49.9721C85.4949 50.3827 84.0753 51.5286 83.3127 53.0977L83.0626 53.7116C81.6917 53.2186 80.9321 50.4837 81.0988 48.5116C82.4169 49.6433 83.1584 51.3102 83.1182 53.0512L83.0626 53.7116V53.693ZM83.9889 49.6558C85.4525 49.6558 87.1569 47.414 87.6942 45.5256C86.0543 46.1032 84.7567 47.3858 84.1557 49.0233L83.9704 49.6558C82.5531 49.3023 81.5249 46.6512 81.4971 44.6791C82.922 45.6735 83.8266 47.2581 83.9611 48.9954V49.6558H83.9889ZM84.5169 45.5442C85.9712 45.4419 87.4348 43.0047 87.8054 41.0605C86.2306 41.8012 85.0685 43.2106 84.6374 44.9023L84.5169 45.5442C83.0719 45.3396 81.738 42.8093 81.5527 40.8465C83.0726 41.6908 84.1338 43.1767 84.4428 44.893L84.5169 45.5442ZM84.6281 41.4047L84.4891 40.7628C84.0043 39.0929 82.8016 37.7281 81.21 37.0419C81.6361 38.9675 83.1738 41.3582 84.6374 41.4233L84.6929 40.7721C84.9534 39.0433 85.9737 37.5235 87.4719 36.6326C87.2959 38.5954 86.0824 41.1721 84.6929 41.4233L84.6281 41.4047ZM84.3224 37.2744C85.7304 36.8744 86.6752 34.1954 86.6475 32.2233C85.2533 33.2615 84.3965 34.873 84.3131 36.614V37.2744C82.8588 37.3582 81.0803 35.1349 80.4597 33.2651C82.1163 33.7903 83.452 35.0326 84.1001 36.6512L84.3039 37.2744H84.3224ZM83.5999 33.2C84.9616 32.6698 85.6285 29.907 85.4062 27.9442C84.1319 29.1221 83.4518 30.8126 83.5536 32.5489L83.6277 33.2C82.1826 33.4326 80.2003 31.3954 79.3944 29.6C81.0962 29.9574 82.5501 31.0593 83.359 32.6047L83.6277 33.2093L83.5999 33.2ZM82.4698 29.2186C83.7666 28.5489 84.1557 25.7396 83.7296 23.8047C82.5693 25.1017 82.0522 26.8544 82.3216 28.5768L82.4605 29.2186C81.0525 29.5907 78.8664 27.7675 77.8845 26.0558C79.6148 26.2383 81.1738 27.1865 82.1363 28.6419L82.4605 29.2093L82.4698 29.2186ZM80.9414 25.3675L80.5616 24.8279C79.4568 23.4763 77.8102 22.6888 76.0689 22.6791C77.2268 24.2791 79.5797 25.8791 80.9414 25.3675L80.7376 24.7442C80.2987 23.0593 80.6389 21.2654 81.6639 19.8605C82.2752 21.7209 82.1734 24.5768 80.9506 25.3675H80.9414ZM79.0331 21.6465C77.727 22.2977 75.2167 20.9489 73.9106 19.4698C75.6446 19.3028 77.3626 19.9199 78.5978 21.1535L79.0331 21.6465L78.7645 21.0419C78.1542 19.4134 78.3073 17.5954 79.1814 16.093C79.9872 17.8977 80.1725 20.7442 79.0331 21.6744V21.6465ZM76.7915 18.1396C77.8289 17.1163 77.3565 14.3163 76.3746 12.5582C75.6558 14.142 75.6864 15.967 76.458 17.5256L76.7822 18.1023L76.3005 17.6558C74.9473 16.552 73.1758 16.1089 71.4651 16.4465C72.9195 17.7861 75.5502 18.8744 76.7822 18.1023L76.7915 18.1396ZM74.1793 14.9209L73.6513 14.5209C72.1928 13.5585 70.3841 13.2961 68.714 13.8047C70.298 14.9954 73.0214 15.814 74.17 14.9209L73.7902 14.3814C72.8665 12.91 72.6521 11.099 73.2066 9.45118C74.3553 11.0605 75.1056 13.7954 74.1329 14.9209H74.1793ZM71.2521 11.9814C72.0673 10.7721 71.039 8.12095 69.7329 6.64188C69.3488 8.33885 69.747 10.1193 70.8167 11.4884L71.2521 11.9814C70.1961 12.9861 67.3986 12.4465 65.6942 11.4233C67.3045 10.7474 69.1308 10.8258 70.6778 11.6372L71.2428 11.9814H71.2521ZM68.0841 9.39537C68.7696 8.11165 67.482 5.58141 66.0369 4.23258C65.8254 5.96115 66.4004 7.69348 67.6024 8.94886L68.0841 9.39537L67.4912 9.1163C65.8741 8.46344 64.0517 8.56568 62.5169 9.39537C64.3047 10.2419 67.1485 10.5023 68.0748 9.39537H68.0841ZM64.6289 7.09769C65.1847 5.74886 63.647 3.37676 62.0723 2.16746C62.0394 3.90829 62.7877 5.57171 64.1102 6.69769L64.6382 7.09769C63.8045 8.29769 60.9329 8.3163 59.0803 7.65583C60.5257 6.67281 62.3316 6.38645 64.0083 6.87444L64.6289 7.09769Z" fill="#303030"/>
</svg>