<?xml version="1.0" encoding="UTF-8"?>
<svg width="99px" height="90px" viewBox="0 0 99 90" version="1.1" xmlns="http://www.w3.org/2000/svg" xmlns:xlink="http://www.w3.org/1999/xlink">
    <!-- Generator: Sketch 59.1 (86144) - https://sketch.com -->
    <title>medal-2017-red</title>
    <desc>Created with Sketch.</desc>
    <g id="About" stroke="none" stroke-width="1" fill="none" fill-rule="evenodd">
        <g id="About-v.1-Light" transform="translate(-1228.000000, -504.000000)" fill="#303030">
            <g id="Group-3" transform="translate(1228.000000, 504.000000)">
                <g id="medal-2017-red">
                    <g id="fame">
                        <path d="M68.5288421,5.80813953 C67.7368421,7.24186047 64.548,7.5872093 62.3804211,7.06395349 C63.8854587,5.80233886 65.8706966,5.27709348 67.7993684,5.63023256 L68.5184211,5.80813953 L67.8827368,5.42093023 C66.2904069,4.30013123 65.2811017,2.52253951 65.1315789,0.575581395 C67.0282105,1.72674419 69.0290526,4.23837209 68.5601053,5.80813953 L68.5288421,5.80813953 Z M65.7985263,4.54186047 L65.7985263,4.54186047 L65.2357895,4.06046512 C63.6757245,2.86504724 61.6672323,2.42790606 59.7543158,2.86744186 C61.4321053,4.32209302 64.4333684,5.4627907 65.7881053,4.55232558 L65.7985263,4.54186047 Z M33.4932632,4.54186047 L33.4932632,4.54186047 C34.8584211,5.45232558 37.8492632,4.31162791 39.5270526,2.85697674 C37.61259,2.42038201 35.6039395,2.86139252 34.0455789,4.06046512 L33.4828421,4.54186047 L33.4932632,4.54186047 Z M28.5849474,88.555814 L28.5849474,88.555814 C27.6053684,89.8744186 24.4165263,89.8011628 22.3323158,88.9953488 C23.990424,87.9412369 26.0288995,87.6805581 27.8971579,88.2837209 L28.5849474,88.555814 C29.2518947,87.0593023 27.6053684,84.3697674 25.8754737,82.9255814 C25.7626215,84.875587 26.5277368,86.7734127 27.9596842,88.0953488 L28.5328421,88.555814 L28.5849474,88.555814 Z M24.4894737,86.1802326 L24.4894737,86.1802326 C25.3023158,84.7569767 23.9475789,81.8686047 22.4052632,80.3093023 C22.1052213,82.2453992 22.6910463,84.2140964 23.9996842,85.6674419 L24.5311579,86.1906977 L23.8746316,85.855814 C22.0768487,85.0661526 20.0225581,85.119836 18.2681053,86.0023256 C20.2481053,87.0488372 23.4786316,87.4046512 24.5207368,86.1906977 L24.4894737,86.1802326 Z M20.7274737,83.4069767 L20.7274737,83.4069767 C19.5082105,84.4534884 16.3818947,83.794186 14.4748421,82.5906977 C16.3096956,81.8897322 18.3597561,82.0430825 20.0709474,83.0093023 L20.6962105,83.4069767 L20.2272632,82.8313953 C19.0759586,81.2540628 18.693201,79.2399325 19.1851579,77.3476744 C20.6024211,79.0639535 21.6653684,82.077907 20.7066316,83.4069767 L20.7274737,83.4069767 Z M17.2676842,80.2674419 C15.9442105,81.2406977 12.9012632,80.2674419 11.1713684,78.8232558 C13.0649998,78.3080834 15.08868,78.6646835 16.6945263,79.7965116 L17.2781053,80.2569767 C18.3202105,79.0325581 17.6115789,75.9244186 16.3818947,74.072093 C15.7015796,75.9072341 15.8815182,77.952598 16.8716842,79.6395349 L17.2885263,80.2569767 L17.2676842,80.2674419 Z M14.1413684,76.8034884 L14.1413684,76.8034884 C12.7241053,77.6302326 9.80621053,76.3116279 8.22221053,74.7104651 C10.1582367,74.3895033 12.1361597,74.9493446 13.6203158,76.2383721 L14.1517895,76.7616279 C15.3606316,75.6523256 14.9229474,72.4813953 13.8808421,70.4825581 C13.019433,72.239192 12.9926339,74.2922246 13.8078947,76.0709302 L14.1517895,76.7302326 L14.1413684,76.8034884 Z M11.3797895,73.0465116 L11.3797895,73.0465116 C9.9,73.7790698 7.16968421,72.1360465 5.73157895,70.4302326 C7.69207929,70.3142104 9.60211096,71.0814536 10.9421053,72.5232558 L11.4110526,73.0883721 L11.1296842,72.4081395 C10.5009587,70.5525977 10.738295,68.5113328 11.7757895,66.8511628 C12.6198947,68.944186 12.7241053,72.0837209 11.4110526,73.1302326 L11.3797895,73.0465116 Z M9.06631579,69.0383721 L9.06631579,69.0383721 L8.85789474,68.3267442 C8.41816549,66.41749 8.85837078,64.4108919 10.0563158,62.8639535 C10.6815789,64.9569767 10.4731579,68.1802326 9.01421053,69.0383721 L8.59736842,68.4209302 C7.40816979,66.8692978 5.59548873,65.9265503 3.64736842,65.8465116 C4.88747368,67.6883721 7.48231579,69.5616279 9.03505263,68.9860465 L9.06631579,69.0383721 Z M7.11757895,64.8523256 L7.11757895,64.8523256 C5.52315789,65.2290698 3.12631579,63.094186 2.07378947,61.1372093 C4.00856638,61.3906019 5.7308667,62.4950805 6.77368421,64.1511628 L7.128,64.8 C8.60778947,64.0988372 9.14968421,60.9488372 8.73284211,58.7616279 C7.38639856,60.1808831 6.74729824,62.133193 6.99252632,64.077907 L7.128,64.8 L7.11757895,64.8523256 Z M5.60652632,60.4465116 L5.60652632,60.4465116 L5.544,59.7034884 C5.48436536,57.7270111 6.31974168,55.8298463 7.81578947,54.544186 C8.00336842,56.7523256 7.14884211,59.8395349 5.60652632,60.394186 L5.32515789,59.7034884 C4.46958832,57.9364086 2.87157716,56.6464515 0.969157895,56.1872093 C1.81326316,58.2802326 3.98084211,60.5930233 5.60652632,60.3732558 L5.60652632,60.4465116 Z M4.56442105,55.9046512 L4.56442105,55.1616279 C4.71973645,53.2058685 5.74109385,51.4234202 7.34684211,50.305814 C7.34684211,52.5244186 6.14842105,55.5383721 4.554,55.9046512 L4.34557895,55.1930233 C3.67191235,53.3492083 2.2112225,51.905382 0.364736842,51.2581395 C1.00042105,53.3511628 2.91789474,55.9465116 4.53315789,55.9046512 L4.56442105,55.9046512 Z M3.97042105,51.2790698 L3.97042105,51.2790698 C2.33431579,51.1639535 0.687789474,48.422093 0.270947368,46.2348837 C2.04196021,47.0636014 3.34984797,48.6458475 3.83494737,50.5465116 L3.97042105,51.2686047 C5.59610526,51.0383721 7.09673684,48.1813953 7.31557895,45.9837209 C5.60777791,46.9358102 4.41467581,48.6063035 4.06421053,50.5360465 L3.98084211,51.2686047 L3.97042105,51.2790698 Z M3.85578947,46.5697674 C2.24052632,46.2872093 0.875368421,43.4302326 0.729473684,41.1802326 C2.41446302,42.1780236 3.56265554,43.8845338 3.85578947,45.8267442 L3.91831579,46.5593023 C5.55442105,46.4860465 7.29473684,43.7965116 7.77410526,41.6302326 C5.98135739,42.4021971 4.62495482,43.9370003 4.07463158,45.8162791 L3.85578947,46.5697674 Z M4.21010526,41.9232558 L4.21010526,41.9232558 C2.60526316,41.4837209 1.56315789,38.4697674 1.56315789,36.2511628 C3.12994434,37.4192538 4.09045063,39.2331021 4.17884211,41.1906977 L4.17884211,41.9337209 C5.81494737,42.027907 7.81578947,39.5267442 8.514,37.4232558 C6.6478014,38.0139548 5.14196643,39.4110147 4.40810526,41.2325581 L4.17884211,41.9337209 L4.21010526,41.9232558 Z M5.03336842,37.3395349 L5.33557895,36.6593023 C6.24795052,34.9226851 7.88256405,33.6838705 9.79578947,33.2790698 C8.88915789,35.3093023 6.66947368,37.6011628 5.02294737,37.3395349 L5.10631579,36.6069767 C5.2223576,34.6533919 4.45697094,32.7510501 3.02210526,31.4267442 C2.76157895,33.6348837 3.52231579,36.7325581 5.04378947,37.3395349 L5.03336842,37.3395349 Z M6.31515789,32.8604651 C4.85621053,32.1069767 4.41852632,28.9465116 4.89789474,26.7697674 C6.19771989,28.2275122 6.77557025,30.1951305 6.47147368,32.127907 L6.31515789,32.85 C7.89915789,33.2686047 10.3585263,31.2174419 11.4735789,29.2918605 C9.52566441,29.5010033 7.77204094,30.5714384 6.69031579,32.2116279 L6.31515789,32.85 L6.31515789,32.8604651 Z M8.04505263,28.527907 L8.04505263,28.527907 C6.66947368,27.6383721 6.55484211,24.4465116 7.25305263,22.3325581 C8.40753197,23.9124992 8.79043408,25.9312352 8.29515789,27.8267442 L8.06589474,28.527907 C9.59778947,29.1034884 12.2343158,27.3139535 13.5577895,25.5034884 C11.5992211,25.5158348 9.747395,26.401568 8.50357895,27.9209302 L8.06589474,28.527907 L8.04505263,28.527907 Z M10.2022105,24.3418605 L10.2022105,24.3418605 C11.6715789,25.0744186 14.4956842,23.5465116 15.9650526,21.8825581 C14.0128437,21.6988923 12.0804525,22.396881 10.692,23.7872093 L10.2022105,24.3418605 L10.5044211,23.6616279 C11.1910246,21.8295978 11.0187544,19.7843693 10.0354737,18.094186 C9.12884211,20.1244186 8.92042105,23.3267442 10.2022105,24.3732558 L10.2022105,24.3418605 Z M12.7657895,20.4383721 L12.7657895,20.4383721 C11.5986316,19.2872093 12.1301053,16.1372093 13.2347368,14.1593023 C14.0401921,15.9427204 14.001907,17.9957906 13.1305263,19.7476744 L12.7657895,20.3965116 L13.3076842,19.894186 C14.8299917,18.6523611 16.8230126,18.1539162 18.7474737,18.5337209 C17.1113684,20.0406977 14.1517895,21.2755814 12.7657895,20.3965116 L12.7657895,20.4383721 Z M15.7045263,16.8174419 L15.7045263,16.8174419 L16.2985263,16.3674419 C17.9392887,15.2846765 19.9741129,14.9894721 21.8529474,15.5616279 C20.0709474,16.9011628 17.0071579,17.822093 15.7149474,16.8174419 L16.1526316,16.2209302 C17.1953219,14.5672833 17.4403238,12.5297825 16.8195789,10.6744186 C15.5273684,12.4848837 14.6728421,15.5616279 15.7253684,16.827907 L15.7045263,16.8174419 Z M18.9975789,13.5104651 L18.9975789,13.5104651 C18.0805263,12.15 19.2372632,9.16744186 20.7066316,7.50348837 C21.1372351,9.41258366 20.6894671,11.4149219 19.4873684,12.955814 L18.9975789,13.5104651 C20.1855789,14.6406977 23.3327368,14.0232558 25.2502105,12.872093 C23.4368021,12.1164424 21.3828881,12.2084543 19.6436842,13.1232558 L19.008,13.5104651 L18.9975789,13.5104651 Z M22.6136842,10.5488372 L22.6136842,10.5488372 C21.8425263,9.10465116 23.2910526,6.25813953 24.9271579,4.74069767 C25.1609216,6.68681971 24.5103414,8.63528366 23.1555789,10.0465116 L22.6136842,10.5488372 L23.2806316,10.2348837 C25.0999711,9.50041882 27.1501816,9.61544002 28.8767368,10.5488372 C26.8654737,11.5011628 23.6662105,11.8046512 22.6241053,10.5488372 L22.6136842,10.5488372 Z M26.5007368,7.96395349 L27.1989474,7.7127907 C29.0804804,7.16404957 31.1074912,7.482229 32.7325263,8.58139535 C30.6483158,9.3244186 27.4282105,9.30348837 26.4798947,7.95348837 L27.0738947,7.50348837 C28.5604592,6.23584042 29.4019973,4.36510446 29.3665263,2.40697674 C27.5949474,3.74651163 25.8546316,6.44651163 26.4798947,7.95348837 L26.5007368,7.96395349 Z M30.6691579,5.7872093 L30.6691579,5.7872093 C30.2002105,4.21744186 32.2010526,1.71627907 34.0976842,0.554651163 C33.9344392,2.51031035 32.9053782,4.28900864 31.2944211,5.4 L30.6587368,5.7872093 L31.3777895,5.60930233 C33.3049534,5.25180318 35.290629,5.77332962 36.7967368,7.03255814 C34.6291579,7.56627907 31.4403158,7.22093023 30.6587368,5.7872093 L30.6691579,5.7872093 Z M70.5296842,88.555814 C71.4988421,89.8744186 74.6981053,89.8011628 76.7823158,88.9848837 C75.1225885,87.9342947 73.0842074,87.6774614 71.2174737,88.2837209 L70.5296842,88.555814 C69.8627368,87.0593023 71.5092632,84.3697674 73.2391579,82.9255814 C73.3490227,84.8750914 72.5844055,86.7716816 71.1549474,88.0953488 L70.5817895,88.555814 L70.5296842,88.555814 Z M74.5105263,86.1593023 C73.6976842,84.7360465 75.0524211,81.8476744 76.5947368,80.277907 C76.8904635,82.2155098 76.3009393,84.1837739 74.9898947,85.6360465 L74.4584211,86.1593023 L75.1149474,85.8244186 C76.9111912,85.0314852 78.9654628,85.0813336 80.7214737,85.9604651 C78.7414737,87.0069767 75.5109474,87.3732558 74.4688421,86.1593023 L74.5105263,86.1593023 Z M78.2725263,83.3860465 C79.4917895,84.4325581 82.6181053,83.7732558 84.5251579,82.5593023 C82.6903044,81.8583368 80.6402439,82.0116872 78.9290526,82.977907 L78.3037895,83.3860465 L78.7727368,82.8104651 C79.9240414,81.2331326 80.306799,79.2190022 79.8148421,77.3267442 C78.3975789,79.0430233 77.3346316,82.0569767 78.2933684,83.3860465 L78.2725263,83.3860465 Z M81.7323158,80.2465116 L82.1491579,79.6290698 C83.1393239,77.9421328 83.3192625,75.8967689 82.6389474,74.0616279 C81.3988421,75.9139535 80.6485263,79.0116279 81.7323158,80.2465116 L82.3158947,79.7860465 C83.9206473,78.6519969 85.9438227,78.2916523 87.8390526,78.8023256 C86.0987368,80.194186 83.0662105,81.2197674 81.7427368,80.2465116 L81.7323158,80.2465116 Z M84.8586316,76.7825581 L84.8586316,76.7825581 C86.2758947,77.6093023 89.1937895,76.2906977 90.7882105,74.6895349 C88.8521843,74.3685731 86.8742614,74.9284144 85.3901053,76.2174419 L84.8586316,76.7406977 C83.6602105,75.6313953 84.0874737,72.4604651 85.1295789,70.4616279 C85.9909881,72.2182618 86.0177872,74.2712943 85.2025263,76.05 L84.8586316,76.7093023 L84.8586316,76.7825581 Z M87.6202105,73.0151163 C89.1104211,73.6953488 91.8824211,72.094186 93.3101053,70.377907 C91.3496049,70.2618848 89.4395732,71.029128 88.0995789,72.4709302 L87.6202105,73.0360465 L87.9015789,72.355814 C88.5349215,70.5019913 88.3013465,68.4601422 87.2658947,66.7988372 C86.4217895,68.8918605 86.3175789,72.0313953 87.6202105,73.077907 L87.6202105,73.0151163 Z M89.9857895,68.9965116 L89.9857895,68.9965116 C91.5385263,69.5302326 94.1542105,67.6465116 95.3838947,65.8569767 C93.4250592,65.9292738 91.5996995,66.872657 90.4026316,68.4313953 L89.9857895,69.0488372 C88.5789474,68.2011628 88.3705263,65.0093023 89.0062105,62.8744186 C90.2055435,64.4207024 90.6458942,66.4279634 90.2046316,68.3372093 L89.9962105,69.0488372 L89.9857895,68.9965116 Z M91.9345263,64.8104651 C93.5289474,65.1872093 95.9257895,63.0523256 96.9783158,61.0953488 C95.0384703,61.3651868 93.319335,62.4892679 92.2888421,64.1616279 L91.9345263,64.8104651 C90.4547368,64.1093023 89.9232632,60.9593023 90.3296842,58.772093 C91.6744216,60.1881212 92.3134995,62.1365197 92.07,64.077907 L91.9345263,64.8 L91.9345263,64.8104651 Z M93.4455789,60.4046512 L93.4455789,60.4046512 C95.0712632,60.6139535 97.2388421,58.2593023 98.0829474,56.2186047 C96.1818533,56.6805542 94.584865,57.9696857 93.7269474,59.7348837 L93.4455789,60.4255814 C91.9032632,59.8709302 91.0487368,56.794186 91.2363158,54.5755814 C92.7191975,55.8486667 93.5533872,57.723923 93.5081053,59.6825581 L93.4455789,60.4255814 L93.4455789,60.4046512 Z M94.4876842,55.8627907 C96.1342105,55.8627907 98.0516842,53.3406977 98.6561053,51.2162791 C96.8112117,51.8660886 95.3514605,53.3089871 94.6752632,55.1511628 L94.4668421,55.8627907 C92.8724211,55.4651163 91.7156842,52.4825581 91.6844211,50.2639535 C93.2873403,51.3826978 94.3050113,53.1653893 94.4564211,55.1197674 L94.4564211,55.8627907 L94.4876842,55.8627907 Z M95.0816842,51.2372093 L95.0816842,51.2372093 C96.7177895,51.122093 98.3643158,48.3802326 98.7811579,46.1930233 C97.009601,47.0263729 95.7021773,48.6118967 95.2171579,50.5151163 L95.0816842,51.2372093 C93.456,51.0069767 91.9553684,48.1604651 91.7469474,45.9523256 C93.4567675,46.9021368 94.6506465,48.5737179 94.9983158,50.5046512 L95.0816842,51.2372093 L95.0816842,51.2372093 Z M95.2067368,46.5802326 L95.0504211,45.8581395 C94.505003,43.9795308 93.1518906,42.4441254 91.3613684,41.672093 C91.8407368,43.8383721 93.5706316,46.527907 95.2171579,46.6011628 L95.2796842,45.8686047 C95.5727209,43.9236586 96.7205256,42.2138827 98.406,41.2116279 C98.208,43.4197674 96.8428421,46.3186047 95.2796842,46.6011628 L95.2067368,46.5802326 Z M94.8628421,41.9337209 C96.4468421,41.4837209 97.5097895,38.4697674 97.4785263,36.2511628 C95.9101147,37.4191296 94.9462385,39.2321186 94.8524211,41.1906977 L94.8524211,41.9337209 C93.2163158,42.027907 91.2154737,39.5267442 90.5172632,37.4232558 C92.3810245,38.0140274 93.8835881,39.4115993 94.6127368,41.2325581 L94.842,41.9337209 L94.8628421,41.9337209 Z M94.05,37.35 C95.5818947,36.7534884 96.3322105,33.6453488 96.0821053,31.4372093 C94.6484919,32.7623859 93.883356,34.6641044 93.9978947,36.6174419 L94.0812632,37.35 C92.4555789,37.6116279 90.2254737,35.3197674 89.3188421,33.3 C91.2333056,33.702066 92.8689603,34.9416697 93.7790526,36.6802326 L94.0812632,37.3604651 L94.05,37.35 Z M92.7786316,32.8709302 L92.7786316,32.8709302 C94.2375789,32.1174419 94.6752632,28.9569767 94.1958947,26.7802326 C92.8906095,28.2393803 92.3088468,30.2111313 92.6118947,32.1488372 L92.7682105,32.8709302 C91.1842105,33.2895349 88.7248421,31.2383721 87.6202105,29.3127907 C89.5667593,29.5180626 91.3206011,30.5847938 92.4034737,32.222093 L92.7682105,32.8604651 L92.7786316,32.8709302 Z M91.0591579,28.5383721 L91.0591579,28.5383721 L90.6318947,27.9313953 C89.3889956,26.4108559 87.5365849,25.5248431 85.5776842,25.5139535 C86.8803158,27.3139535 89.5272632,29.1139535 91.0591579,28.5383721 L90.8298947,27.8372093 C90.3361505,25.941648 90.7189262,23.9235786 91.872,22.3430233 C92.5597895,24.4360465 92.4451579,27.6488372 91.0695789,28.5383721 L91.0591579,28.5383721 Z M88.9124211,24.3523256 C87.4430526,25.0848837 84.6189474,23.5674419 83.1495789,21.9034884 C85.1003502,21.7156124 87.0331097,22.4098983 88.4226316,23.7976744 L88.9124211,24.3523256 L88.6102105,23.672093 C87.923607,21.8400629 88.0958772,19.7948344 89.0791579,18.1046512 C89.9857895,20.1348837 90.1942105,23.3372093 88.9124211,24.3837209 L88.9124211,24.3523256 Z M86.3905263,20.4069767 C87.5576842,19.255814 87.0262105,16.105814 85.9215789,14.127907 C85.1128584,15.9097548 85.1473148,17.962811 86.0153684,19.7162791 L86.3801053,20.3651163 L85.8382105,19.8627907 C84.3159031,18.6209658 82.3228822,18.1225209 80.3984211,18.5023256 C82.0345263,20.0093023 84.9941053,21.2337209 86.3801053,20.3651163 L86.3905263,20.4069767 Z M83.4517895,16.7860465 L83.4517895,16.7860465 L82.8577895,16.3360465 C81.2170271,15.2532812 79.1822029,14.9580767 77.3033684,15.5302326 C79.0853684,16.8697674 82.1491579,17.7906977 83.4413684,16.7860465 L83.0141053,16.1790698 C81.9749111,14.5237759 81.7337484,12.4863682 82.3575789,10.6325581 C83.6497895,12.4430233 84.4938947,15.5197674 83.3996842,16.7860465 L83.4517895,16.7860465 Z M80.1587368,13.4790698 C81.0757895,12.1186047 79.9190526,9.13604651 78.4496842,7.47209302 C78.017551,9.3811866 78.4654667,11.3841849 79.6689474,12.9244186 L80.1587368,13.4790698 C78.9707368,14.6093023 75.8235789,14.0023256 73.9061053,12.8511628 C75.7177204,12.0908033 77.7722466,12.1790076 79.5126316,13.0918605 L80.1483158,13.4790698 L80.1587368,13.4790698 Z M76.5947368,10.5697674 C77.3658947,9.1255814 75.9173684,6.27906977 74.2916842,4.76162791 C74.0536647,6.70627318 74.7005521,8.65514119 76.0528421,10.0674419 L76.5947368,10.5697674 L75.9277895,10.255814 C74.1084499,9.52134905 72.0582395,9.63637025 70.3316842,10.5697674 C72.3429474,11.522093 75.5422105,11.8151163 76.5843158,10.5697674 L76.5947368,10.5697674 Z M72.7076842,7.98488372 C73.3329474,6.46744186 71.6030526,3.79883721 69.8314737,2.43837209 C69.7945131,4.39680751 70.6363262,6.26815483 72.1241053,7.53488372 L72.7181053,7.98488372 C71.7802105,9.33488372 68.5496842,9.35581395 66.4654737,8.6127907 C68.0915306,7.50688586 70.1232187,7.18473659 72.0094737,7.73372093 L72.7076842,7.98488372 Z" id="Shape"></path>
                    </g>
                </g>
            </g>
        </g>
    </g>
</svg>