<svg width="26" height="18" viewBox="0 0 26 18" fill="none" xmlns="http://www.w3.org/2000/svg">
<g clip-path="url(#clip0)">
<path d="M2.98747 0.333177C2.87993 0.351103 2.82615 0.369029 2.70964 0.395917C2.5752 0.386955 2.40493 0.2794 2.25258 0.333177C2.24361 0.369027 2.23466 0.404879 2.21672 0.440732C2.13607 0.404879 2.18088 0.333179 2.13607 0.279402C2.45869 0.27044 2.81718 0.198737 3.10398 0.315253C3.72236 0.162887 4.45725 0.306289 5.1115 0.252514C5.69403 0.234588 6.29449 0.153923 6.86807 0.288364C6.72466 0.324215 6.76052 0.494506 6.70674 0.611021C6.59023 0.646874 6.59023 0.781315 6.50958 0.853017C6.69779 1.14879 6.60817 1.48937 6.76052 1.80306C7.23552 1.97335 7.02042 1.5073 6.81429 1.337C6.96666 0.978495 7.36098 1.06812 7.49542 1.36389C7.50438 1.45352 7.48645 1.51626 7.57607 1.58796C7.64777 1.58796 7.71947 1.60589 7.7822 1.53418C7.97041 1.51626 8.17653 1.55211 8.37371 1.50729C8.4902 1.50729 8.5619 1.42663 8.66049 1.38182C8.83077 1.337 8.92936 1.1936 9.08171 1.13086C9.52982 0.96057 9.52982 0.879904 9.21614 0.512431C9.09963 0.360065 8.84869 0.440732 8.67842 0.404881C8.61568 0.404881 8.5619 0.404881 8.50814 0.360067C8.40058 0.315253 8.26615 0.360065 8.14966 0.297326C8.06003 0.360065 7.95247 0.351103 7.8539 0.333177C7.7105 0.288364 7.55815 0.360065 7.42371 0.288364C7.73739 0.216662 8.14069 0.279402 8.48125 0.252514C9.20718 0.135998 9.98688 0.315251 10.7039 0.467618C12.6486 1.01434 14.6024 2.30498 15.2297 4.32159C15.4627 5.01171 15.5165 5.74666 15.4538 6.47264C15.4538 7.16277 15.4359 7.84394 15.167 8.48926C14.1274 11.187 10.9996 12.6928 8.23031 12.2805C8.50814 12.2536 8.77701 12.2805 9.04587 12.2088C9.09963 12.1998 9.15341 12.1819 9.19822 12.2446C9.42228 12.2895 9.69114 12.2446 9.9152 12.2536C9.99585 12.1909 9.95104 12.1192 9.92415 12.0564C9.99585 11.9757 10.1213 12.0026 10.1303 11.8592C10.2647 11.7248 10.2647 11.5007 10.1392 11.3753C10.0407 11.2587 10.0496 11.0974 9.94207 10.9809C10.0407 10.8733 10.0317 10.7389 10.0227 10.6045C10.1303 10.0398 9.39539 10.2639 9.09963 10.1205C8.91142 9.995 8.66945 10.0488 8.46333 10.0577C8.27512 10.1294 8.35577 10.3893 8.15861 10.5059C8.05107 10.5328 7.88079 10.5328 7.77325 10.47C7.69258 10.3356 7.48645 10.3894 7.42371 10.228C7.32514 9.97708 7.08315 9.8516 6.81429 9.8516C6.56336 9.21524 7.59399 8.94636 8.06899 8.95531C8.65153 8.91947 9.18029 8.63267 9.68217 8.39067C10.3902 7.63781 10.6321 6.95662 10.5425 5.93487C10.5425 5.82733 10.5067 5.71977 10.5784 5.63015C10.5694 5.59429 10.5515 5.58534 10.5067 5.61223C10.0675 3.99893 8.2572 3.50598 6.76052 3.65835C6.21383 3.71213 5.53271 3.49703 5.05772 3.79278C4.71715 4.91312 5.06668 6.16791 4.97706 7.33306C5.03979 7.85291 4.62753 8.8388 5.3445 8.99117C5.46998 9.00014 5.5596 9.07184 5.65818 9.16146C5.61337 9.17043 5.58647 9.17938 5.5596 9.18835C5.55063 9.24213 5.53271 9.29589 5.52374 9.34967C5.0129 9.59167 5.08461 9.78885 4.59169 9.37656C4.14358 9.65442 4.4931 10.4611 4.89639 10.6314C5.03979 10.7658 4.9412 11.0347 5.13837 11.1691C5.30866 11.447 4.84263 11.6083 5.04875 12.1729C5.1115 12.1909 5.17423 12.2088 5.23696 12.2267C5.24593 12.2536 5.24593 12.2805 5.25488 12.2984C5.29969 12.2984 5.29074 12.2626 5.29074 12.2446C5.45204 12.3074 5.66714 12.2894 5.84639 12.2626C5.72988 11.9757 6.15109 12.0833 6.32137 11.9847C6.38412 12.0385 6.4558 12.0833 6.5275 12.146C5.63129 12.3791 6.92185 12.2357 7.1459 12.2895C6.76947 12.5046 6.24072 12.4777 5.79261 12.4866C5.44309 12.4418 5.15631 12.3612 4.88744 12.6569C4.85158 12.5673 5.07564 12.4687 5.10253 12.3522C5.08461 12.3163 5.06668 12.2894 5.04875 12.2536C4.92328 12.2536 4.9412 12.4239 4.87847 12.4956C4.78885 12.5404 4.67234 12.5494 4.60961 12.63C4.48414 12.7914 4.28698 12.6838 4.12566 12.7734C4.0898 12.9796 3.84783 13.123 3.95537 13.3381C4.08085 13.4098 4.22423 13.4098 4.36763 13.4636C4.10774 13.6787 4.5648 13.8669 4.66339 13.6428C4.73509 13.5622 4.79782 13.5173 4.7799 13.4008C4.79782 13.2305 4.72612 13.0334 4.82471 12.89C4.95017 14.3867 5.10253 15.9014 4.93225 17.4072C4.93225 17.4968 4.91431 17.6043 4.79782 17.6043C3.22047 17.5506 1.62522 17.6849 0.0568516 17.5685C-0.0417318 16.1434 0.0389272 14.7004 0.029965 13.2754C0.110624 12.4598 -0.176163 10.3625 0.236094 9.80677C0.289867 9.96811 0.200245 10.1563 0.289867 10.3177C0.316753 10.3535 0.316753 10.4073 0.280905 10.4431C0.182321 10.7031 0.254018 10.9988 0.254018 11.2677C0.280905 11.2856 0.307791 11.2946 0.34364 11.3125C0.316753 11.3394 0.289867 11.3573 0.26298 11.3842C0.51392 11.447 0.558729 11.7606 0.791745 11.8772C0.93514 11.8144 0.93514 11.6352 1.10542 11.6083C1.21297 11.5904 1.28466 11.447 1.26674 11.3394C1.23985 11.2229 1.16815 11.1333 1.25778 11.0257C1.33843 10.9182 1.32051 10.7837 1.3474 10.6582C1.37428 10.5686 1.49975 10.5417 1.50872 10.4342C1.56249 10.2639 1.70588 10.1205 1.67003 9.93225C1.78655 9.7799 1.95682 9.80679 2.1271 9.77093C2.28842 9.88744 2.3422 10.1563 2.55728 10.2191C2.92474 10.2728 2.95161 9.57375 2.59312 9.52893C2.47663 9.56478 2.39596 9.45723 2.29739 9.44826C2.25258 9.46619 2.25258 9.52893 2.18985 9.5379C2.16296 9.44827 2.13607 9.35864 2.10918 9.26902C1.75966 9.13457 1.4191 8.94636 1.02476 9.01806C0.944102 8.88361 0.863442 8.75815 0.782785 8.63267C0.549769 8.56992 0.21817 8.57889 0.155435 8.29208C-0.0775797 7.47647 0.0837377 6.60709 0.029965 5.77355C0.0389272 3.94515 -0.041732 2.1078 0.029965 0.279402C0.173359 0.144962 0.540807 0.315251 0.254018 0.422804C0.200245 0.539319 0.21817 0.682726 0.209207 0.817167C0.21817 0.89783 0.307791 0.969531 0.245056 1.0502C0.361564 1.06812 0.469108 1.03227 0.540805 0.93368C0.755897 1.09501 0.773823 0.888866 0.917215 0.924717C0.953064 0.951605 0.988912 0.996421 0.970988 1.04124C0.908253 1.17567 0.953064 1.35493 0.85448 1.47144C0.6842 1.62381 0.908253 1.84787 1.07853 1.83892C1.204 1.84787 1.36532 1.81203 1.44598 1.92854C1.64315 2.12572 1.97474 1.9644 2.21672 1.97335C2.59312 1.04123 2.94266 1.81203 3.40869 2.13469C3.56104 2.22431 3.76717 2.17053 3.89264 2.32291C4.28698 2.60971 4.53791 2.30498 4.38555 1.8927C4.3049 1.78514 4.2332 1.67759 4.2332 1.53418C4.29593 1.37285 4.34971 1.11294 4.54688 1.07709C4.81574 1.0502 4.67234 0.754425 4.47518 0.745463C4.08085 0.602059 4.24217 0.386955 3.66858 0.404881C3.65963 0.431769 3.65963 0.449692 3.65066 0.467618C3.63274 0.467618 3.61482 0.46762 3.5969 0.449694C3.55209 0.369029 3.43558 0.351103 3.35491 0.395917C3.26529 0.485544 3.13982 0.306289 2.98747 0.333177ZM6.4558 3.45221C6.5992 3.01304 6.16901 2.61868 5.73885 2.78897C5.47893 2.84275 5.16526 2.69038 4.9412 2.79792C4.88744 2.88756 4.78885 2.93237 4.73509 3.02199C4.53791 3.1385 4.25112 3.0668 4.32282 3.40739C4.32282 3.43428 4.34074 3.46117 4.35866 3.47014C4.45725 3.54184 4.44829 3.67627 4.50207 3.78383C4.57377 3.81072 4.64547 3.83761 4.71715 3.87345C4.76196 4.04374 4.81574 4.26781 4.71715 4.42018C4.61858 4.48292 4.48414 4.63529 4.50207 4.74283C4.60961 4.85039 4.64547 4.9669 4.81574 4.9669C4.88744 4.6084 4.67234 3.91826 5.0129 3.69419C5.12942 3.63146 5.12942 3.42532 5.30866 3.47014C5.68507 3.4522 6.07044 3.55976 6.4558 3.45221ZM4.82471 14.2344C4.73509 14.1895 4.73509 14.091 4.7082 14.0192C4.62753 13.9834 4.53791 13.9117 4.45725 13.9475C4.28698 14.0372 4.05396 13.9386 3.93745 14.1358C3.89264 14.2075 3.85679 14.2881 3.76717 14.315C3.48934 14.6018 3.59688 14.9962 3.74925 15.3099C3.80301 15.4891 3.90161 15.525 4.07188 15.4981C4.34074 15.4981 4.48414 15.8118 4.79782 15.6953C4.80677 15.4264 4.74404 15.1665 4.73509 14.8976C4.73509 14.808 4.69028 14.7184 4.78885 14.6467C4.82471 14.5301 4.81574 14.3778 4.82471 14.2344ZM1.02476 14.4853C1.17712 14.5929 1.29362 14.7632 1.48183 14.808C1.67003 14.4584 1.47287 14.082 1.56249 13.7056C1.56249 13.6518 1.57145 13.598 1.59834 13.5442C1.67003 13.3291 1.42806 13.1051 1.35636 12.8989C1.22193 12.7017 1.17712 12.3253 0.899291 12.3163C0.773821 12.3253 0.746934 12.3343 0.702124 12.4598C0.666275 12.6659 0.72901 12.7645 0.522883 12.8989C0.585616 13.0961 0.827594 13.2126 0.80967 13.4277C0.800707 13.5173 0.800707 13.598 0.836556 13.6876C0.872405 13.7056 0.917215 13.7235 0.953064 13.7504C0.997875 14.0013 0.890329 14.2523 1.02476 14.4853ZM13.1774 1.78514C13.025 1.84787 13.1684 1.98232 13.0967 2.08986C12.4694 2.20639 12.5321 3.20125 13.1326 3.33569C13.3118 3.41636 13.0519 3.77486 13.4283 3.64938C13.5986 3.51495 13.2312 3.42532 13.3477 3.25503C13.3746 3.18332 13.3835 3.09369 13.4463 3.03991C13.6076 2.84273 13.6076 2.53801 13.8496 2.40358C13.8496 2.37669 13.8496 2.34083 13.8406 2.31394C13.7599 2.24224 13.7599 2.24224 13.7599 2.16158C13.6793 2.12572 13.5986 2.08986 13.509 2.05402C13.4911 2.09883 13.4463 2.13469 13.4194 2.08091C13.4552 2.04505 13.4821 2.00921 13.509 1.98232C13.3925 1.91957 13.285 1.85684 13.1774 1.78514ZM11.9227 1.09501C11.851 1.01434 11.7435 1.0502 11.6987 0.93368C11.5463 0.879904 11.3581 0.879904 11.2147 0.799239C11.143 0.790277 11.1788 0.673762 11.1071 0.673762C11.0086 0.682724 10.8831 0.628948 10.7935 0.691686C10.8204 0.772351 10.8831 0.835091 10.9369 0.89783C11.0265 1.08605 11.1251 1.25634 11.3671 1.15775C11.5373 1.06812 11.7524 1.22945 11.9227 1.09501ZM8.21239 9.02701C8.40058 9.17938 8.66945 9.08976 8.87558 9.21524C9.01001 9.31383 9.08171 9.16146 9.19822 9.13457C9.38642 9.09873 9.41331 8.87466 9.40434 8.70437C9.27888 8.80296 9.11755 8.78502 8.99209 8.87466C8.75907 9.06287 8.50814 9.02701 8.21239 9.02701ZM1.77758 15.3368C1.84928 15.1396 1.84928 15.05 1.76861 14.8976C1.45494 14.7721 1.47287 14.9962 1.42806 15.2292C1.44598 15.3637 1.67003 15.4264 1.77758 15.3368ZM13.7689 9.61856C13.7151 9.73507 13.7151 9.87849 13.8585 9.90536C13.975 9.91433 13.984 10.0219 14.0736 10.0667C14.1632 9.97706 14.2618 9.88744 14.3335 9.78885C14.3066 9.73507 14.2708 9.72612 14.226 9.72612C14.0557 9.75301 13.9571 9.51997 13.7689 9.61856ZM3.34596 16.8156C3.46247 16.9232 3.47142 16.9232 3.5969 16.8963C3.62377 16.7977 3.65963 16.7081 3.76717 16.6633C3.76717 16.6185 3.76717 16.5736 3.76717 16.5288C3.57896 16.3854 3.26529 16.5826 3.34596 16.8156ZM0.298829 12.388C0.271942 12.4956 0.26298 12.7645 0.289867 12.89C0.352602 12.881 0.424299 12.9079 0.495994 12.8631C0.469108 12.6569 0.38845 12.4687 0.298829 12.388ZM0.51392 13.589C0.46911 13.6966 0.495994 13.7683 0.540805 13.84C0.585616 13.849 0.612504 13.849 0.648353 13.84C0.693163 13.7504 0.693162 13.6697 0.639391 13.5801C0.59458 13.589 0.558731 13.589 0.51392 13.589Z" fill="black"/>
<path d="M25.8146 17.5865C24.2909 17.6582 22.7225 17.6134 21.199 17.5685C21.0556 16.4482 21.1452 15.2831 21.1452 14.1448C21.1004 13.383 21.1452 12.5853 21.199 11.8504C21.0556 10.6135 21.1452 9.35873 21.1452 8.11291C21.217 7.49447 21.0018 6.78642 21.2349 6.21281C21.3245 6.57131 21.217 6.9119 21.2438 7.28832C21.4141 7.3421 21.423 7.18975 21.5576 7.17181C21.7457 7.14492 21.9788 7.20767 22.1312 7.08219C22.1669 7.03738 22.2118 7.02841 22.2655 7.02841C22.3552 7.01049 22.3999 7.10011 22.4807 7.10908C22.7136 7.127 22.8928 7.21664 23.0183 7.40485C23.0811 7.49447 23.072 7.67373 23.2245 7.67373C23.3141 7.60203 23.4306 7.6558 23.5201 7.59306C23.565 7.23456 23.7622 6.87604 24.1386 6.79539C24.4343 6.55339 23.9862 5.6123 24.5867 5.48682C24.7481 5.45994 24.8913 5.53164 25.0439 5.4689C25.1065 5.35238 25.2409 5.34341 25.3574 5.28965C25.3843 5.20898 25.4023 5.11936 25.438 5.02972C25.4829 5.0118 25.5366 4.99388 25.5994 4.97594C25.5726 4.75189 25.6443 4.47404 25.5635 4.2679C25.5277 4.23204 25.5457 4.19618 25.5815 4.15137C25.5366 4.09759 25.5009 4.04383 25.4651 3.99005C25.5994 3.66739 25.6083 3.37162 25.5994 3.02208C25.5815 2.70837 25.6621 2.38573 25.5457 2.08995C25.6621 1.76729 25.5726 1.39982 25.5905 1.05924C25.5994 0.772431 25.6443 0.620065 25.456 0.360147C25.4291 0.369109 25.4023 0.378071 25.3665 0.387033C25.3485 0.422885 25.3305 0.449774 25.3126 0.485624C25.232 0.4677 25.1962 0.351183 25.1871 0.261556C25.3843 0.279482 25.5905 0.180891 25.7787 0.261556C25.8324 0.548363 25.8146 0.888948 25.7518 1.17575C25.5994 1.42671 25.7966 1.65974 25.7876 1.91966C25.8324 2.76215 25.8055 3.61361 25.8146 4.45611C25.7876 8.83889 25.8504 13.2217 25.8146 17.5865ZM22.2297 12.8811C22.0952 12.8542 21.9877 12.7735 21.8802 12.6929C21.7277 12.5405 21.6562 12.4419 21.4321 12.5674C21.3604 12.7018 21.217 12.8183 21.2527 12.9797C21.2707 12.9797 21.2796 13.0424 21.2527 13.0603C21.3693 13.6967 21.1721 14.3241 21.3156 14.9425C21.2081 15.0232 21.1721 15.1576 21.2796 15.2652C21.5127 15.2024 21.5845 15.2383 21.6562 15.4623C21.7905 15.7312 21.9249 15.9732 21.9877 16.269C22.0594 16.5379 22.3283 16.5558 22.1758 16.8874C22.0952 17.0308 21.8802 16.9143 21.7548 17.0129C21.7277 17.0846 21.6919 17.1563 21.6562 17.237C21.6113 17.237 21.5665 17.237 21.5037 17.237C21.6291 17.1204 21.5127 17.0308 21.441 16.9412C21.4051 16.8516 21.3424 16.7978 21.2527 16.744C21.2081 16.9591 21.2707 17.1653 21.2618 17.3804C21.8891 17.4252 22.5524 17.4521 23.1706 17.3714C23.2961 17.3176 23.4216 17.2997 23.5561 17.2907C23.5919 17.2728 23.583 17.2101 23.6367 17.2101C23.825 17.4699 24.1565 17.4431 24.4343 17.3535C24.5418 17.2997 24.6226 17.4252 24.7301 17.3714C24.6673 17.219 24.5061 17.0756 24.6046 16.9143C24.6226 16.9412 24.6404 16.9591 24.6495 16.9681C24.8198 16.8516 25.1245 16.9143 25.2051 16.7082C25.3126 16.3407 25.0976 15.9284 24.8376 15.6864C24.7212 15.5968 24.739 15.4444 24.6404 15.3369C24.4972 15.1218 24.2462 15.1755 24.049 15.0859C23.7084 14.9067 23.6547 14.9067 23.5201 14.5213C23.323 14.3241 23.0811 14.1269 23.0542 13.8222C23.0542 13.7684 23.0183 13.7056 22.9914 13.6519C22.8928 13.5264 22.9108 13.3561 22.8928 13.2127C22.7405 13.141 22.615 13.1679 22.5075 13.2665C22.3372 13.1948 22.3013 13.0514 22.2297 12.8811ZM23.6098 10.8734C23.8697 10.9272 23.9056 11.223 24.0937 11.3753C24.2372 11.3933 24.3895 11.3664 24.524 11.4381C24.5867 11.5636 24.775 11.6263 24.8735 11.5187C25.1245 11.3933 24.9631 11.1244 25.0616 10.9003C25.1334 10.6673 24.9631 10.4522 24.7929 10.3177C24.7929 10.264 24.7929 10.2012 24.7929 10.1564C24.9004 9.91442 25.1513 10.004 25.2857 9.80686C25.3843 9.73516 25.474 9.64553 25.6083 9.62759C25.6891 9.26014 25.4112 9.08983 25.0796 9.07191C24.8287 9.00021 24.6315 9.18842 24.4792 9.35873C24.264 9.62759 24.4703 10.013 24.3178 10.3177C24.0579 10.3267 23.8787 10.4342 23.7353 10.6404C23.6995 10.73 23.547 10.7479 23.6098 10.8734ZM21.6023 11.9041C21.5665 11.9848 21.5396 12.0475 21.459 12.0655C21.3873 12.2089 21.5665 12.2537 21.6023 12.3702C21.6471 12.3702 21.683 12.3702 21.7277 12.3702C21.7905 12.2358 21.6919 12.2178 21.6382 12.1282C21.683 12.1013 21.7188 12.0834 21.7548 12.0565C21.7548 12.0117 21.7548 11.9579 21.7548 11.9041C21.7008 11.9041 21.6562 11.9041 21.6023 11.9041Z" fill="black"/>
<path d="M18.9143 6.73269C18.4393 7.2077 17.8389 7.57517 17.3101 7.98746C17.1488 8.10397 16.7993 8.41766 16.8172 8.00538C16.8799 6.6072 16.8172 5.20901 16.853 3.81082C17.3101 3.27308 18.0181 2.92352 18.5828 2.49332C19.497 1.7494 20.4469 1.05031 21.3878 0.333297C21.5581 0.18093 21.7912 0.180932 22.0062 0.180932C22.8398 0.154044 23.6732 0.216782 24.4977 0.270559C24.3722 0.378111 24.3722 0.378111 24.211 0.351223C24.211 0.575291 24.193 0.835208 24.3005 1.05031C24.3722 1.20268 24.3902 1.54326 24.2199 1.63289C24.0227 1.70459 23.9421 1.92866 23.7269 1.96451C23.5837 1.97348 23.512 2.1348 23.3685 2.14377C23.1087 2.18858 22.8667 2.2782 22.6335 2.38576C22.562 2.38576 22.5171 2.43954 22.4634 2.47538C22.2214 2.64567 21.8719 2.45746 21.6926 2.74426C21.6389 2.80701 21.5312 2.80701 21.4775 2.87871C21.4506 2.9056 21.4686 2.96833 21.4148 2.96833C21.3431 2.9773 21.37 3.049 21.3163 3.06693C20.9756 3.18344 20.7874 2.82493 20.42 2.93248C20.2766 3.02211 20.0883 3.06693 19.9629 3.18344C19.8911 3.27308 19.8911 3.40751 19.7837 3.45232C19.7119 3.52402 19.6851 3.63158 19.5596 3.63158C19.2459 3.66742 18.9681 3.51507 18.6992 3.37167C18.5737 3.15655 18.6096 2.89663 18.4482 2.68153C18.3676 2.68153 18.4393 2.77115 18.3228 2.74426C18.1795 2.94144 17.9912 3.07589 17.794 3.22825C17.9464 3.41648 17.8478 3.67639 18.0361 3.84668C18.0718 3.97216 17.9106 4.13349 17.83 4.21416C17.6866 4.24104 17.5342 4.25 17.4356 4.37548C17.3818 4.43823 17.3101 4.44718 17.2295 4.44718C17.1578 4.44718 17.0861 4.43823 17.0054 4.47407C16.9875 4.77881 16.9606 5.08353 17.0144 5.39723C17.2026 5.38828 17.328 5.19109 17.3549 5.02975C17.5073 4.85051 17.8209 5.06561 17.9106 4.75192C17.9555 4.42029 18.3139 4.18727 18.6007 4.42029C18.7977 4.57266 18.9143 4.85946 19.1921 4.85051C19.2459 4.91324 19.2907 4.97599 19.3444 5.03872C19.1743 5.24486 19.3087 5.48687 19.497 5.6213C19.5416 5.63922 19.5776 5.66611 19.5865 5.71989C19.6402 5.8364 19.8016 5.80951 19.9091 5.85432C19.9091 5.89018 19.8822 5.89018 19.8554 5.89915C19.6313 5.99774 19.5148 6.25765 19.2998 6.37416C19.2012 6.49068 19.1204 6.62513 18.9681 6.68786C18.9771 6.57135 19.1115 6.55343 19.1295 6.43691C18.9771 6.43691 18.8337 6.51757 18.7799 6.66097C18.8337 6.7058 18.8785 6.72372 18.9143 6.73269ZM17.2026 7.76339C17.346 7.85303 17.5073 7.74547 17.552 7.61102C17.4534 7.54828 17.2743 7.63791 17.2026 7.76339Z" fill="black"/>
<path d="M1.00586 0.279759C1.36434 0.270797 1.74972 0.252869 2.09028 0.297683C2.06339 0.342496 2.00961 0.297683 1.98272 0.333533C1.98272 0.38731 2.05442 0.38731 2.06339 0.432124C1.83934 0.405236 1.5884 0.369386 1.35538 0.441086C1.28369 0.45005 1.26576 0.441086 1.16718 0.396274C1.1134 0.351459 0.996898 0.369386 1.00586 0.279759Z" fill="black"/>
<path d="M8.19455 12.2894C8.02428 12.3521 7.84504 12.3162 7.67476 12.3252C7.54033 12.3342 7.57617 12.2177 7.60306 12.128C7.83608 12.0205 8.02428 12.1639 8.19455 12.2894Z" fill="black"/>
<path d="M6.87683 0.297705C7.02918 0.252892 7.21738 0.243932 7.36975 0.279782C7.28908 0.342519 7.18154 0.252894 7.08295 0.279782C7.06502 0.306668 7.05606 0.333557 7.03813 0.369405C6.98437 0.342519 6.92164 0.342517 6.87683 0.297705Z" fill="black"/>
<path d="M18.9758 6.70569C18.958 6.71467 18.9132 6.72366 18.9132 6.74163C18.9401 6.73265 18.958 6.71467 18.9758 6.70569Z" fill="black"/>
<path d="M22.7125 15.7043C22.5422 16.1256 22.1121 15.9643 22.3988 15.8388C22.5065 15.8119 22.5065 15.8119 22.5154 15.7133C22.5154 15.552 22.6497 15.6237 22.7125 15.7043Z" fill="black"/>
</g>
<defs>
<clipPath id="clip0">
<rect width="26" height="17.7987" fill="white"/>
</clipPath>
</defs>
</svg>
